<svg xmlns="http://www.w3.org/2000/svg" viewBox="0 0 134 40">
  <defs>
    <style>
      .a {
        fill: #acdcd4;
      }

      .b {
        fill: #181b1b;
      }
    </style>
  </defs>
  <title>logo</title>
  <polygon class="a" points="33.528 0 38.442 0.001 38.445 4.782 38.445 5.307 33.529 5.313 33.528 0"/>
  <polygon class="b" points="0.026 39.609 0 0.027 4.91 0.028 4.93 22.92 14.297 11.215 19.958 11.205 11.954 21.171 20.859 39.594 15.523 39.604 8.741 25.203 4.934 29.906 4.942 39.609 0.026 39.609"/>
  <polygon class="b" points="23.55 39.591 23.522 0.01 28.442 0.005 28.472 39.069 28.473 39.596 23.55 39.591"/>
  <polygon class="b" points="33.531 11.191 38.448 11.195 38.471 39.059 38.471 39.584 33.555 39.588 33.531 11.191"/>
  <path class="b" d="M48.379,39.05118V39.577l-4.91434.0029L43.4416,11.19221l4.91577-.011.00148,1.86343a10.93054,10.93054,0,0,1,7.02839-2.65894l.02717-.00094A7.67027,7.67027,0,0,1,62.135,13.84057c2.37963-1.87884,4.83451-3.4068,8.19613-3.46449.02835-.00192.04375-.00143.04661-.00143a6.80737,6.80737,0,0,1,5.32748,2.13118c1.38233,1.56065,2.17395,4.01381,2.17631,7.64745l.01732,19.40355L72.98,39.55059l-.01349-18.38647v-.01683c0-.56335.01826-1.1646.01826-1.76539a8.0509,8.0509,0,0,0-.521-3.39,2.546,2.546,0,0,0-2.60938-1.39965c-.03317-.00143-.06059-.00286-.08219-.00143-2.46665-.01585-5.09217,1.7-6.6533,3.31112l.02067,21.66157-4.91986.0029L58.20934,21.167V21.116c0-.54646.01585-1.12615.01585-1.70772a8.13626,8.13626,0,0,0-.51738-3.40153,2.52,2.52,0,0,0-2.56065-1.40487l-.01585.00044c-3.03285.10287-4.84248,1.60582-6.76793,3.33278Z"/>
  <path class="b" d="M122.96286,9.74743H113.2241V21.94851h-3.02227a14.94961,14.94961,0,1,0,.236,4.73386h2.78627V38.71812h5.15683V26.72946h3.68218c6.13828,0,11.58059-1.31022,11.58059-8.59391C133.6437,11.7123,128.57,9.74743,122.96286,9.74743ZM105.09165,21.69809a21.40569,21.40569,0,0,1-4.41085-1.05262,10.88608,10.88608,0,0,1-4.12922-2.50508,6.52392,6.52392,0,0,1-1.70579-3.14531c.24368-.01826.48735-.038.73585-.03844A10.10815,10.10815,0,0,1,105.09165,21.69809Zm-9.51,13.45559a10.08656,10.08656,0,0,1-5.2534-18.70417,11.31551,11.31551,0,0,0,2.81944,4.98138,17.706,17.706,0,0,0,8.96206,4.54206,30.44042,30.44042,0,0,0,3.45006.5503A10.10572,10.10572,0,0,1,95.58165,35.15368ZM121.49115,22.31h-3.11022v-8.143h3.68218c2.782,0,6.17914.4907,6.17914,4.0513C128.24225,22.14557,124.43654,22.31,121.49115,22.31Z"/>
</svg>
